<?xml version="1.0" encoding="utf-8"?>
<!-- Generator: Adobe Illustrator 16.0.3, SVG Export Plug-In . SVG Version: 6.00 Build 0)  -->
<!DOCTYPE svg PUBLIC "-//W3C//DTD SVG 1.1//EN" "http://www.w3.org/Graphics/SVG/1.1/DTD/svg11.dtd">
<svg version="1.1" id="圖層_1" xmlns="http://www.w3.org/2000/svg" xmlns:xlink="http://www.w3.org/1999/xlink" x="0px" y="0px"
	 width="72px" height="40px" viewBox="0 0 72 40" enable-background="new 0 0 72 40" xml:space="preserve">
<g>
	<g>
		<path fill="#FFFFFF" d="M3.719,34.493c-0.422,1.605-1.055,2.936-1.898,3.99l-0.756-0.633c0.797-1.031,1.354-2.256,1.67-3.674
			L3.719,34.493z M2.049,32.946c-0.328-0.012-0.492-0.182-0.492-0.51v-8.543h1.037v7.734c0,0.188,0.088,0.281,0.264,0.281h5.836
			v1.037H5.898v6.293H4.861v-6.293H2.049z M8.5,30.626H3.789c-0.082-0.012-0.123-0.059-0.123-0.141v-7.313
			c0-0.082,0.041-0.123,0.123-0.123H8.5c0.094,0,0.141,0.041,0.141,0.123v7.313C8.629,30.579,8.582,30.626,8.5,30.626z M7.604,25.37
			v-1.529c0-0.023-0.018-0.035-0.053-0.035H4.738c-0.035,0.012-0.047,0.023-0.035,0.035v1.529H7.604z M4.703,28.376v1.441
			c-0.012,0.023,0,0.041,0.035,0.053h2.813c0.035-0.023,0.053-0.041,0.053-0.053v-1.441H4.703z M7.604,27.62v-1.494h-2.9v1.494
			H7.604z M7.762,34.37c0.445,0.797,0.791,1.635,1.037,2.514l-0.967,0.299c-0.352-1.031-0.691-1.846-1.02-2.443L7.762,34.37z
			 M11.523,34.511c-0.27,1.594-0.797,3.006-1.582,4.236l-0.809-0.563c0.715-1.09,1.166-2.391,1.354-3.902L11.523,34.511z
			 M9.66,32.753l-0.229-1.02l1.459-0.141c0.445-0.492,0.938-1.09,1.477-1.793c-0.938-1.02-1.898-1.846-2.883-2.479
			c0.176-0.305,0.357-0.604,0.545-0.896c0.094,0.035,0.369,0.234,0.826,0.598c0.516-0.82,1.02-1.711,1.512-2.672
			c-0.914,0.047-1.693,0.07-2.338,0.07l-0.141-1.037c2.73,0,4.957-0.176,6.68-0.527l0.158,1.02
			c-0.316,0.059-1.377,0.193-3.182,0.404c-0.422,0.879-1.072,2.004-1.951,3.375c0.41,0.352,0.867,0.779,1.371,1.283
			c0.598-0.914,1.055-1.799,1.371-2.654l0.984,0.316c-0.48,1.5-1.494,3.117-3.041,4.852l3.27-0.352
			c-0.281-0.68-0.551-1.254-0.809-1.723l0.967-0.422c0.563,1.008,1.078,2.291,1.547,3.85l-0.984,0.369
			c-0.117-0.375-0.234-0.721-0.352-1.037l-2.074,0.211v6.891h-1.037v-6.785L9.66,32.753z M15.795,33.808
			c0.598,1.125,1.131,2.549,1.6,4.271l-0.984,0.352c-0.527-1.816-1.055-3.223-1.582-4.219L15.795,33.808z"/>
		<path fill="#FFFFFF" d="M21.297,29.29c-0.047,0-0.07,0.023-0.07,0.07v8.807h-1.037v-9.668c0.012-0.164,0.094-0.246,0.246-0.246
			h6.293v-2.689h-7.594v-1.037h7.594v-1.898h1.037v1.898h7.699v1.037h-7.699v2.689h6.486c0.176,0.012,0.264,0.094,0.264,0.246v8.121
			c0,0.422-0.164,0.744-0.492,0.967c-0.363,0.281-0.791,0.428-1.283,0.439c-0.727,0.035-1.652-0.059-2.777-0.281v-1.16
			c1.688,0.352,2.766,0.387,3.234,0.105c0.188-0.129,0.281-0.287,0.281-0.475V29.36c-0.012-0.047-0.041-0.07-0.088-0.07h-5.625
			v9.809h-1.037V29.29H21.297z"/>
		<path fill="#FFFFFF" d="M38.523,25.897c-0.094,2.766-0.264,5.01-0.51,6.732l-1.002-0.158c0.387-2.508,0.545-4.729,0.475-6.662
			L38.523,25.897z M40.563,22.558V39.31h-1.037V22.558H40.563z M42.971,29.396l-1.02,0.123l-0.439-3.41l1.02-0.211L42.971,29.396z
			 M46.047,35.513c-0.797,1.359-1.934,2.537-3.41,3.533l-0.773-0.756c2.496-1.441,4.025-3.715,4.588-6.82h-4.465v-1.037h4.588
			c0.035-0.434,0.053-0.896,0.053-1.389v-3.129H43.34v-1.037h3.287v-2.109h1.037v2.109H51.9c0.176,0.012,0.264,0.094,0.264,0.246
			v5.309h1.512v1.037h-5.73c0.703,2.496,2.602,4.729,5.695,6.697l-0.879,0.756c-0.105-0.082-0.199-0.146-0.281-0.193
			c-2.789-2.039-4.541-4.066-5.256-6.082C47.037,33.351,46.645,34.306,46.047,35.513z M47.664,29.044
			c0.012,0.527,0.041,0.99,0.088,1.389h3.375v-4.395c-0.012-0.082-0.059-0.123-0.141-0.123h-3.322v2.689
			C47.664,28.745,47.664,28.892,47.664,29.044z"/>
		<path fill="#FFFFFF" d="M57.596,32.647c-0.012-0.082-0.059-0.123-0.141-0.123h-2.303v-1.037h3.217
			c0.176,0.012,0.264,0.094,0.264,0.246v4.307c0.082,0.34,0.305,0.656,0.668,0.949c0.258,0.199,0.604,0.375,1.037,0.527
			c1.289,0.422,4.939,0.51,10.951,0.264l-0.211,1.16c-2.59,0.047-5.045,0.076-7.365,0.088c-2.789,0.023-4.623-0.545-5.502-1.705
			c-0.434,0.984-1.389,1.641-2.865,1.969c-0.117-0.316-0.252-0.65-0.404-1.002c0.867-0.258,1.512-0.551,1.934-0.879
			c0.398-0.352,0.639-0.844,0.721-1.477V32.647z M55.68,26.688c0.797,0.445,1.67,1.09,2.619,1.934l-0.65,0.826
			c-1.02-0.867-1.869-1.5-2.549-1.898L55.68,26.688z M55.803,23.032c0.844,0.434,1.764,1.072,2.76,1.916l-0.615,0.844
			c-1.066-0.867-1.969-1.494-2.707-1.881L55.803,23.032z M62.869,31.681h-2.883v-1.037h2.883v-1.213h-1.986
			c-0.258-0.023-0.492-0.129-0.703-0.316c-0.234-0.234-0.346-0.48-0.334-0.738v-4.869c0-0.211,0.105-0.316,0.316-0.316h4.254
			c0.223,0,0.334,0.105,0.334,0.316v2.777c0,0.223-0.111,0.334-0.334,0.334h-3.533v1.336c0,0.117,0.041,0.217,0.123,0.299
			c0.094,0.082,0.193,0.129,0.299,0.141h2.18c0.117,0,0.229-0.035,0.334-0.105c0.152-0.094,0.211-0.445,0.176-1.055l1.02,0.229
			c0.082,0.879-0.006,1.424-0.264,1.635c-0.246,0.223-0.527,0.334-0.844,0.334v1.213h2.83v-1.213
			c-0.246-0.035-0.463-0.141-0.65-0.316c-0.234-0.234-0.346-0.48-0.334-0.738v-4.799c0-0.211,0.105-0.316,0.316-0.316h4.254
			c0.223,0,0.334,0.105,0.334,0.316v2.707c0,0.223-0.111,0.334-0.334,0.334h-3.533v1.336c0,0.117,0.041,0.217,0.123,0.299
			c0.094,0.082,0.193,0.129,0.299,0.141h2.461c0.117,0,0.229-0.035,0.334-0.105c0.164-0.105,0.223-0.498,0.176-1.178l1.02,0.211
			c0.082,0.961-0.006,1.553-0.264,1.775s-0.533,0.334-0.826,0.334h-2.338v1.213h3.059v1.037h-3.059v1.494h3.691v1.037h-11.76v-1.037
			h3.164V31.681z M63.959,35.548c-1.23,0.785-2.414,1.266-3.551,1.441l-0.123-0.967c1.148-0.211,2.197-0.668,3.146-1.371
			L63.959,35.548z M60.883,25.581h2.654c0.117,0,0.176-0.059,0.176-0.176v-1.02c0-0.105-0.059-0.158-0.176-0.158h-2.479
			c-0.117,0-0.176,0.059-0.176,0.176V25.581z M66.736,33.175v-1.494h-2.83v1.494H66.736z M66.789,25.581h2.654
			c0.117,0,0.176-0.059,0.176-0.176v-0.949c0-0.105-0.059-0.158-0.176-0.158h-2.479c-0.117,0-0.176,0.059-0.176,0.176V25.581z
			 M67.492,34.739c1.008,0.27,2.162,0.738,3.463,1.406l-0.422,0.967c-1.371-0.691-2.502-1.16-3.393-1.406L67.492,34.739z"/>
	</g>
	<g>
		<g>
			<rect x="2.246" y="8.663" fill="#FFFFFF" width="21.155" height="9.154"/>
		</g>
		<g>
			<rect x="26.913" y="8.663" fill="#FFFFFF" width="21.155" height="9.154"/>
		</g>
		<polygon fill="#FFFFFF" points="69.036,7.132 50.475,1.228 56.379,19.788 58.74,13.472 64.973,19.703 68.949,15.726 62.718,9.495 
					"/>
	</g>
</g>
</svg>
