<?xml version="1.0" encoding="utf-8"?>
<!-- Generator: Adobe Illustrator 16.0.3, SVG Export Plug-In . SVG Version: 6.00 Build 0)  -->
<!DOCTYPE svg PUBLIC "-//W3C//DTD SVG 1.1//EN" "http://www.w3.org/Graphics/SVG/1.1/DTD/svg11.dtd">
<svg version="1.1" id="圖層_1" xmlns="http://www.w3.org/2000/svg" xmlns:xlink="http://www.w3.org/1999/xlink" x="0px" y="0px"
	 width="72px" height="40px" viewBox="0 0 72 40" enable-background="new 0 0 72 40" xml:space="preserve">
<g>
	<g>
		<path fill="#FFFFFF" d="M1.178,32.735l-0.229-1.037l6.627-0.264c1.652-1.688,3.205-3.604,4.658-5.748l0.844,0.615
			c-0.926,1.406-2.273,3.1-4.043,5.08l5.889-0.246c-0.621-0.844-1.201-1.535-1.74-2.074l0.756-0.721
			c1.172,1.207,2.391,2.83,3.656,4.869l-0.879,0.545c-0.387-0.609-0.756-1.166-1.107-1.67l-5.906,0.281v6.873H8.666v-6.838
			L1.178,32.735z M5.783,34.317c-0.832,1.371-2.127,2.936-3.885,4.693L1.195,38.22c1.043-1.008,1.828-1.828,2.355-2.461
			c0.41-0.48,0.85-1.125,1.318-1.934L5.783,34.317z M7.348,24.931c-1.816,0.105-3.662,0.158-5.537,0.158l-0.193-1.107
			c6.023,0.012,10.676-0.393,13.957-1.213l0.299,1.072c-1.172,0.281-3.592,0.615-7.26,1.002c-0.586,0.961-1.482,2.168-2.689,3.621
			c0.398,0.258,0.814,0.533,1.248,0.826l-0.51,0.896c-1.453-1.125-2.906-1.975-4.359-2.549c0.129-0.328,0.252-0.65,0.369-0.967
			c0.387,0.059,1.201,0.48,2.443,1.266C5.854,27.034,6.598,26.032,7.348,24.931z M13.148,33.685
			c1.172,1.172,2.396,2.748,3.674,4.729l-0.861,0.563c-1.336-2.039-2.52-3.557-3.551-4.553L13.148,33.685z"/>
		<path fill="#FFFFFF" d="M18.967,31.698l-0.264-1.002l0.738-0.105c0.586-0.574,1.236-1.324,1.951-2.25
			c-0.855-0.844-1.723-1.529-2.602-2.057c0.164-0.305,0.334-0.604,0.51-0.896c0.082,0.012,0.27,0.129,0.563,0.352
			c0.609-0.973,1.201-2.057,1.775-3.252l0.879,0.527c-0.387,0.867-1.02,1.975-1.898,3.322c0.41,0.328,0.867,0.727,1.371,1.195
			c0.75-1.078,1.318-2.133,1.705-3.164l0.984,0.352c-0.668,1.863-1.916,3.744-3.744,5.643l3.111-0.439
			c-0.211-0.633-0.352-1.043-0.422-1.23l1.002-0.281c0.574,1.793,0.902,2.9,0.984,3.322l-1.02,0.211
			c-0.082-0.328-0.164-0.656-0.246-0.984l-1.635,0.229v8.051h-1.037v-7.91L18.967,31.698z M20.619,33.034
			c-0.246,1.934-0.551,3.639-0.914,5.115l-0.984-0.264c0.422-1.641,0.721-3.322,0.896-5.045L20.619,33.034z M25.576,36.515
			l-1.02,0.229l-0.773-3.621l1.002-0.299L25.576,36.515z M29.109,30.767v1.512c-0.023,2.883-1.184,5.115-3.48,6.697l-0.773-0.756
			c0.574-0.305,1.061-0.668,1.459-1.09c1.172-1.23,1.758-2.848,1.758-4.852v-1.424l-1.494,0.123l-0.264-1.055h0.58
			c0.832-1.406,1.588-2.906,2.268-4.5H25.33v-1.037h4.289v-1.758h1.037v1.758h4.676v1.037h-5.045
			c-0.457,1.172-1.166,2.637-2.127,4.395l5.344-0.422c-0.047-0.105-0.094-0.211-0.141-0.316c-0.445-0.926-0.738-1.518-0.879-1.775
			l0.949-0.404c0.844,1.676,1.477,3.1,1.898,4.271l-0.984,0.334c-0.141-0.375-0.287-0.762-0.439-1.16l-1.564,0.158v6.908
			c-0.012,0.164,0.07,0.252,0.246,0.264h1.477c0.07,0,0.141-0.035,0.211-0.105c0.082-0.094,0.141-0.773,0.176-2.039l1.037,0.334
			c-0.059,0.961-0.129,1.658-0.211,2.092c-0.07,0.246-0.182,0.428-0.334,0.545c-0.199,0.141-0.422,0.211-0.668,0.211h-2.461
			c-0.34-0.012-0.51-0.182-0.51-0.51v-7.611L29.109,30.767z"/>
		<path fill="#FFFFFF" d="M39.533,27.04h-2.742v-1.037h2.742v-3.305h1.037v3.305h1.863v1.037H40.57v4.219
			c0.551-0.27,1.008-0.516,1.371-0.738l0.58,0.861c-0.586,0.34-1.236,0.674-1.951,1.002v5.432c-0.012,0.457-0.193,0.809-0.545,1.055
			c-0.434,0.27-1.371,0.211-2.813-0.176l0.053-1.072c1.031,0.387,1.705,0.504,2.021,0.352c0.082-0.047,0.146-0.111,0.193-0.193
			c0.035-0.07,0.053-0.146,0.053-0.229v-4.729c-0.75,0.293-1.518,0.58-2.303,0.861l-0.51-0.932c1.137-0.387,2.074-0.727,2.813-1.02
			V27.04z M53.227,25.792v1.037h-4.148v2.83h3.902v1.037h-3.902v2.83h3.832v1.037h-3.832v2.971h4.219v1.037h-9.176
			c-0.246,0-0.369-0.129-0.369-0.387V27.673c-0.504,0.68-1.055,1.271-1.652,1.775l-0.773-0.721c0.902-0.82,1.676-1.711,2.32-2.672
			c0.48-0.785,0.938-1.986,1.371-3.604l1.02,0.246c-0.305,1.184-0.674,2.215-1.107,3.094h3.27c0.539-1.242,0.902-2.273,1.09-3.094
			l1.002,0.316c-0.188,0.82-0.498,1.746-0.932,2.777H53.227z M48.041,26.829H44.93c-0.094,0.012-0.141,0.059-0.141,0.141v2.689
			h3.252V26.829z M48.041,30.696h-3.252v2.83h3.252V30.696z M48.041,34.563h-3.252v2.813c0.012,0.105,0.059,0.158,0.141,0.158h3.111
			V34.563z"/>
		<path fill="#FFFFFF" d="M71.543,32.015v0.967H59.695v0.967h11.408c0.129,0,0.193,0.094,0.193,0.281
			c-0.023,1.688-0.088,2.83-0.193,3.428c-0.105,0.539-0.305,0.955-0.598,1.248c-0.516,0.445-1.74,0.469-3.674,0.07v-1.09
			c1.113,0.234,1.834,0.346,2.162,0.334c0.281-0.012,0.498-0.076,0.65-0.193c0.199-0.164,0.334-0.387,0.404-0.668
			c0.082-0.352,0.141-1.131,0.176-2.338c-0.012-0.023-0.059-0.035-0.141-0.035h-11.25c-0.117-0.012-0.176-0.076-0.176-0.193v-3.709
			h-1.512c-0.07,3.059-0.598,5.52-1.582,7.383l-0.984-0.387c0.621-1.301,1.037-2.52,1.248-3.656
			c0.188-1.078,0.287-2.396,0.299-3.955v-4.254c0-0.188,0.094-0.281,0.281-0.281h6.117v-0.844h1.037v0.844h7.383v1.037h-4.992v1.037
			h3.902c0.211,0,0.316,0.105,0.316,0.316v2.443c0,0.211-0.105,0.316-0.316,0.316h-10.16v0.932H71.543z M60.188,24.438v0.809H59.15
			v-0.809h-4.5v-1.037h4.5v-0.703h1.037v0.703H65.9v-0.773h1.037v0.773h4.535v1.037h-4.535v0.809H65.9v-0.809H60.188z
			 M59.361,36.286c-0.387,1.125-0.967,2.115-1.74,2.971L56.9,38.589c0.668-0.75,1.16-1.641,1.477-2.672L59.361,36.286z
			 M60.697,26.97h-3.41c-0.082,0-0.123,0.041-0.123,0.123v0.914h3.533V26.97z M60.697,28.974h-3.533v1.143h3.533V28.974z
			 M61.559,36.181c0.082,1.441,0.123,2.443,0.123,3.006l-1.02-0.053c0.012-0.668-0.035-1.652-0.141-2.953H61.559z M64.916,26.97
			h-3.182v1.037h3.182V26.97z M64.916,28.974h-3.182v1.143h3.182V28.974z M64.213,35.794c0.398,1.078,0.656,1.904,0.773,2.479
			l-1.002,0.211c-0.199-0.855-0.457-1.652-0.773-2.391L64.213,35.794z M65.953,30.116h3.076c0.07,0,0.105-0.035,0.105-0.105v-0.949
			c0-0.059-0.035-0.088-0.105-0.088h-3.076V30.116z M66.867,35.372c0.387,0.445,0.779,1.025,1.178,1.74l-0.896,0.563
			c-0.434-0.738-0.814-1.301-1.143-1.688L66.867,35.372z"/>
	</g>
	<polygon fill="#FFFFFF" points="48.661,7.696 43.733,14.211 37.111,1.635 30.488,14.211 25.561,7.696 23.311,18.607 50.91,18.607 	
		"/>
</g>
</svg>
