<?xml version="1.0" encoding="utf-8"?>
<!-- Generator: Adobe Illustrator 16.0.3, SVG Export Plug-In . SVG Version: 6.00 Build 0)  -->
<!DOCTYPE svg PUBLIC "-//W3C//DTD SVG 1.1//EN" "http://www.w3.org/Graphics/SVG/1.1/DTD/svg11.dtd">
<svg version="1.1" id="圖層_1" xmlns="http://www.w3.org/2000/svg" xmlns:xlink="http://www.w3.org/1999/xlink" x="0px" y="0px"
	 width="72px" height="40px" viewBox="0 0 72 40" enable-background="new 0 0 72 40" xml:space="preserve">
<g>
	<g>
		<path fill="#FFFFFF" d="M4.354,36.022c-0.879,1.441-1.793,2.467-2.742,3.076l-0.773-0.721c1.148-0.832,2.021-1.793,2.619-2.883
			L4.354,36.022z M4.091,26.97v0.457c0,0.234-0.041,0.457-0.123,0.668c-0.293,0.738-1.072,1.324-2.338,1.758l-0.492-0.949
			c0.703-0.188,1.178-0.387,1.424-0.598c0.328-0.234,0.492-0.527,0.492-0.879V26.97h-2.18v-1.037H4.39V24.72H1.437v-1.037H4.39
			v-1.055h1.037v1.055h3.129v1.037H5.427v1.213h3.621v1.037H6.903v1.107c0,0.164,0.059,0.305,0.176,0.422
			c0.117,0.105,0.252,0.164,0.404,0.176h0.984c0.105,0,0.211-0.041,0.316-0.123c0.047-0.023,0.07-0.07,0.07-0.141
			c0.047-0.188,0.094-0.498,0.141-0.932l1.02,0.281c-0.152,0.914-0.27,1.424-0.352,1.529c-0.211,0.281-0.457,0.422-0.738,0.422
			H6.903c-0.27-0.023-0.516-0.146-0.738-0.369c-0.199-0.211-0.299-0.439-0.299-0.686V26.97H4.091z M4.249,31.751H1.366v-1.037h2.883
			v-1.477h1.037v1.477h3.34v1.037h-3.34v1.389l3.27-0.439l0.141,1.02l-7.488,1.002l-0.229-1.02l3.27-0.422V31.751z M7.905,35.987
			c-0.199,1.324-0.387,2.396-0.563,3.217L6.358,38.94c0.293-1.207,0.475-2.256,0.545-3.146L7.905,35.987z M9.54,35.073L8.679,34.44
			c1.301-1.102,2.232-2.813,2.795-5.133c-0.492-0.996-0.967-1.852-1.424-2.566l0.932-0.475c0.246,0.398,0.51,0.844,0.791,1.336
			c0.07-0.621,0.111-1.324,0.123-2.109h-2.25v-1.037h2.268V23.05h1.037v1.406h2.18c0.211-0.023,0.322,0.041,0.334,0.193
			c-0.023,4.875,0.088,7.617,0.334,8.227c0.047,0.082,0.094,0.129,0.141,0.141c0.047,0,0.111-0.123,0.193-0.369
			c0.117-0.316,0.217-1.096,0.299-2.338l1.02,0.229c-0.164,2.168-0.445,3.434-0.844,3.797c-0.223,0.211-0.445,0.316-0.668,0.316
			c-0.199,0-0.375-0.076-0.527-0.229c-0.07-0.07-0.123-0.141-0.158-0.211c-0.574-0.961-0.844-3.803-0.809-8.525
			c0.023-0.117-0.023-0.182-0.141-0.193h-1.371c-0.047,1.324-0.176,2.531-0.387,3.621c0.645,1.301,1.266,2.777,1.863,4.43
			l-0.967,0.422c-0.457-1.184-0.896-2.256-1.318-3.217C11.491,32.542,10.63,33.983,9.54,35.073z M11.474,35.864
			c0.492,1.301,0.826,2.285,1.002,2.953l-1.002,0.246c-0.293-1.09-0.621-2.057-0.984-2.9L11.474,35.864z M14.954,35.302
			c0.773,0.809,1.553,1.869,2.338,3.182l-0.861,0.615c-0.855-1.395-1.623-2.449-2.303-3.164L14.954,35.302z"/>
		<path fill="#FFFFFF" d="M26.099,23.63v7.154c0,0.223-0.111,0.334-0.334,0.334h-5.15v8.121c-0.363,0-0.709,0-1.037,0V23.63
			c0.012-0.199,0.111-0.299,0.299-0.299h5.906C25.993,23.343,26.099,23.442,26.099,23.63z M25.062,26.706v-2.197
			c0-0.094-0.053-0.141-0.158-0.141h-4.131c-0.105,0-0.158,0.053-0.158,0.158v2.18H25.062z M20.614,27.743v2.338h4.289
			c0.105,0,0.158-0.053,0.158-0.158v-2.18H20.614z M28.56,31.118c-0.223-0.012-0.334-0.129-0.334-0.352v-7.102
			c0-0.223,0.111-0.334,0.334-0.334h5.766c0.234,0,0.352,0.111,0.352,0.334v14.186c0,0.223-0.059,0.422-0.176,0.598
			c-0.117,0.188-0.27,0.322-0.457,0.404c-1.055,0.434-2.514,0.334-4.377-0.299l0.158-1.125c1.922,0.48,3.111,0.633,3.568,0.457
			c0.059-0.023,0.111-0.076,0.158-0.158c0.059-0.082,0.088-0.176,0.088-0.281v-6.328H28.56z M33.64,26.776v-2.232
			c-0.012-0.117-0.076-0.176-0.193-0.176h-4.025c-0.117,0-0.17,0.053-0.158,0.158v2.25H33.64z M29.263,27.813v2.074
			c0,0.129,0.059,0.193,0.176,0.193h4.201v-2.268H29.263z"/>
		<path fill="#FFFFFF" d="M39.054,26.899h-2.18v-1.037h2.18v-3.111h1.037v3.111h1.652v1.037h-1.652v3.973
			c0.492-0.293,0.92-0.551,1.283-0.773l0.598,0.826c-0.867,0.574-1.494,0.932-1.881,1.072v5.695
			c-0.023,0.316-0.094,0.563-0.211,0.738c-0.129,0.176-0.27,0.299-0.422,0.369c-0.445,0.176-1.125,0.152-2.039-0.07l-0.105-1.09
			c0.914,0.141,1.43,0.17,1.547,0.088c0.129-0.082,0.193-0.176,0.193-0.281v-4.939c-0.574,0.258-1.166,0.51-1.775,0.756
			l-0.563-0.896c0.926-0.363,1.705-0.686,2.338-0.967V26.899z M45.522,30.415h-2.953v-1.037h2.953v-3.182h-3.164v-1.037h3.164
			v-2.391h1.037v10.775c0,0.516-0.053,1.008-0.158,1.477c-0.129,0.504-0.305,0.973-0.527,1.406
			c-0.305,0.527-0.621,0.967-0.949,1.318c-0.398,0.41-0.932,0.797-1.6,1.16l-0.721-0.791c0.516-0.234,0.955-0.516,1.318-0.844
			c0.996-0.902,1.518-1.951,1.564-3.146c-0.234,0.105-0.48,0.217-0.738,0.334c-1.055,0.48-1.922,0.832-2.602,1.055l-0.457-0.932
			c0.973-0.352,2.25-0.896,3.832-1.635V30.415z M49.724,39.239h-1.037V22.628h1.037v2.531h3.34v1.037h-3.34v3.182h3.129v1.037
			h-3.129v3.393h3.762v1.037h-3.762V39.239z"/>
		<path fill="#FFFFFF" d="M55.876,33.104l-0.844-0.65c1.617-1.336,2.836-2.936,3.656-4.799l0.932,0.439
			c-0.398,0.797-0.791,1.5-1.178,2.109v9.035h-1.037v-7.646C56.878,32.202,56.368,32.706,55.876,33.104z M59.058,23.173
			c-0.785,2.133-1.711,3.727-2.777,4.781l-0.914-0.563c1.266-1.301,2.168-2.813,2.707-4.535L59.058,23.173z M60.71,28.938v-1.037
			h10.846v1.037h-2.707v8.736c-0.012,0.457-0.193,0.809-0.545,1.055c-0.996,0.621-2.748,0.615-5.256-0.018v-1.09
			c1.406,0.352,2.672,0.51,3.797,0.475c0.457-0.059,0.762-0.211,0.914-0.457c0.035-0.07,0.053-0.146,0.053-0.229v-8.473H60.71z
			 M70.782,23.683v1.037h-9.51v-1.037H70.782z"/>
	</g>
	<path fill="#FFFFFF" d="M37.68,15.569c1.43-4.864-2.582-9.697-2.582-9.697l-0.166,3.602c0,0-1.668-2.632-2.484-4.502
		C31.283,2.308,31.156,0,31.156,0s-2.143,1.232-4.143,3.518c-1.672,1.911-2.381,3.964-2.381,3.964l-0.26-4.157
		c0,0-6.928,7.803-2.254,13.42C26.098,21.524,36.377,20.007,37.68,15.569z"/>
	<path fill="#FFFFFF" d="M39.529,16.805c-1.102-3.156,1.33-5.639,1.33-5.639l0.156,2.081c0,0,0.92-1.541,1.361-2.633
		c0.627-1.555,0.662-2.891,0.662-2.891s1.26,0.688,2.455,1.984c1,1.086,1.443,2.266,1.443,2.266l0.08-2.407
		c0,0,4.141,4.431,1.531,7.733C46.328,20.111,40.598,19.862,39.529,16.805z"/>
</g>
</svg>
