<?xml version="1.0" encoding="utf-8"?>
<!-- Generator: Adobe Illustrator 16.0.3, SVG Export Plug-In . SVG Version: 6.00 Build 0)  -->
<!DOCTYPE svg PUBLIC "-//W3C//DTD SVG 1.1//EN" "http://www.w3.org/Graphics/SVG/1.1/DTD/svg11.dtd">
<svg version="1.1" id="圖層_1" xmlns="http://www.w3.org/2000/svg" xmlns:xlink="http://www.w3.org/1999/xlink" x="0px" y="0px"
	 width="32px" height="32px" viewBox="0 0 32 32" enable-background="new 0 0 32 32" xml:space="preserve">
<g>
	<path fill="#518CCA" d="M32,4v24c0,2.21-1.79,4-4,4H4c-2.21,0-4-1.79-4-4V4c0-2.21,1.79-4,4-4h24C30.21,0,32,1.79,32,4z"/>
	<g>
		<path fill="#FFFFFF" d="M24.87,16.59h-5.54c-0.12-4.99,0.609-6.17,3.81-6.67c2.07-0.28,2.63-0.39,2.91-0.56
			c0.45-0.28,0.84-0.95,0.84-1.63c0-1.17-1.12-1.9-2.8-1.9c-3.25,0-6.22,1.34-7.45,3.36c-1.01,1.68-1.18,2.69-1.18,7.4h-1.681
			c-1.229,0-2.069,0.78-2.069,1.9c0,1.12,0.89,1.96,2.069,1.96h1.681V32h3.87V20.45h5.54c1.229,0,2.08-0.78,2.08-1.9
			C26.95,17.37,26.1,16.59,24.87,16.59z"/>
	</g>
</g>
</svg>
