<?xml version="1.0" encoding="utf-8"?>
<!-- Generator: Adobe Illustrator 16.0.3, SVG Export Plug-In . SVG Version: 6.00 Build 0)  -->
<!DOCTYPE svg PUBLIC "-//W3C//DTD SVG 1.1//EN" "http://www.w3.org/Graphics/SVG/1.1/DTD/svg11.dtd">
<svg version="1.1" id="圖層_1" xmlns="http://www.w3.org/2000/svg" xmlns:xlink="http://www.w3.org/1999/xlink" x="0px" y="0px"
	 width="32px" height="32px" viewBox="0 0 32 32" enable-background="new 0 0 32 32" xml:space="preserve">
<g>
	<path fill="#518CCA" d="M32,4v24c0,2.21-1.79,4-4,4H4c-2.21,0-4-1.79-4-4V4c0-2.21,1.79-4,4-4h24C30.21,0,32,1.79,32,4z"/>
	<path fill="#FFFFFF" d="M27.209,11.633c-0.255-1.757-0.882-3.188-3.883-3.457c-3.268-0.292-10.429-0.357-15.215,0
		c-1.898,0.142-3.061,1.388-3.315,3.712c-0.255,2.323-0.226,6.63-0.028,8.103c0.198,1.474,0.708,3.655,3.74,3.911
		c3.032,0.255,12.778,0.198,15.329-0.028c2.55-0.228,3.174-2.55,3.4-4.534C27.464,17.356,27.417,13.066,27.209,11.633z
		 M13.775,20.505v-9.011L20.491,16L13.775,20.505z"/>
</g>
</svg>
