<?xml version="1.0" encoding="utf-8"?>
<!-- Generator: Adobe Illustrator 16.0.3, SVG Export Plug-In . SVG Version: 6.00 Build 0)  -->
<!DOCTYPE svg PUBLIC "-//W3C//DTD SVG 1.1//EN" "http://www.w3.org/Graphics/SVG/1.1/DTD/svg11.dtd">
<svg version="1.1" id="圖層_1" xmlns="http://www.w3.org/2000/svg" xmlns:xlink="http://www.w3.org/1999/xlink" x="0px" y="0px"
	 width="32px" height="32px" viewBox="0 0 32 32" enable-background="new 0 0 32 32" xml:space="preserve">
<g>
	<g>
		<path fill="#518CCA" d="M32,4v24c0,2.21-1.79,4-4,4H4c-2.21,0-4-1.79-4-4V4c0-2.21,1.79-4,4-4h24C30.21,0,32,1.79,32,4z"/>
	</g>
	<path fill="#FFFFFF" d="M28.041,8.463c-0.513,0.356-1.75,0.769-2.731,0.858c0.468-0.301,1.695-1.427,2.029-2.721
		c-0.654,0.37-2.127,1.104-3.172,1.139c-0.892-0.954-2.159-1.551-3.568-1.551c-2.706,0-4.9,2.194-4.9,4.9
		c0,0.405,0.055,0.797,0.148,1.174c-3.067,0.058-7.611-1.778-10.283-5.171c-1.293,1.271-1.07,4.794,1.494,6.601
		c-0.848,0.067-1.673-0.223-2.186-0.558c-0.201,2.252,1.583,4.393,3.858,4.839c-0.691,0.334-1.45,0.29-2.119,0.223
		c0.481,1.497,2.076,3.218,4.473,3.429c-2.359,1.637-4.548,2.161-7.126,1.923c5.285,3.646,12.678,2.508,16.691-0.736
		c3.479-2.812,5.284-7.529,4.88-11.612C26.376,10.69,27.453,9.639,28.041,8.463z"/>
</g>
</svg>
