<?xml version="1.0" encoding="utf-8"?>
<!-- Generator: Adobe Illustrator 16.0.3, SVG Export Plug-In . SVG Version: 6.00 Build 0)  -->
<!DOCTYPE svg PUBLIC "-//W3C//DTD SVG 1.1//EN" "http://www.w3.org/Graphics/SVG/1.1/DTD/svg11.dtd">
<svg version="1.1" id="圖層_1" xmlns="http://www.w3.org/2000/svg" xmlns:xlink="http://www.w3.org/1999/xlink" x="0px" y="0px"
	 width="32px" height="32px" viewBox="0 0 32 32" enable-background="new 0 0 32 32" xml:space="preserve">
<g>
	<g>
		<path fill="#518CCA" d="M32,4v24c0,2.21-1.79,4-4,4H4c-2.21,0-4-1.79-4-4V4c0-2.21,1.79-4,4-4h24C30.21,0,32,1.79,32,4z"/>
	</g>
	<g>
		<path fill="#FFFFFF" d="M21.347,28.062H10.652c-3.703,0-6.715-3.012-6.715-6.714V10.652c0-3.702,3.012-6.714,6.715-6.714h10.694
			c3.703,0,6.715,3.012,6.715,6.714v10.696C28.062,25.05,25.05,28.062,21.347,28.062z M10.652,5.938c-2.6,0-4.715,2.115-4.715,4.714
			v10.696c0,2.6,2.115,4.714,4.715,4.714h10.694c2.6,0,4.715-2.115,4.715-4.714V10.652c0-2.6-2.115-4.714-4.715-4.714H10.652z"/>
		<path fill="#FFFFFF" d="M16,22.437c-3.55,0-6.438-2.888-6.438-6.438S12.45,9.562,16,9.562S22.438,12.45,22.438,16
			S19.55,22.437,16,22.437z M16,11.562c-2.447,0-4.438,1.991-4.438,4.438s1.99,4.438,4.438,4.438c2.446,0,4.438-1.991,4.438-4.438
			S18.446,11.562,16,11.562z"/>
		<circle fill="#FFFFFF" cx="22.563" cy="9.594" r="1.406"/>
	</g>
</g>
</svg>
