<?xml version="1.0" encoding="utf-8"?>
<!-- Generator: Adobe Illustrator 16.0.3, SVG Export Plug-In . SVG Version: 6.00 Build 0)  -->
<!DOCTYPE svg PUBLIC "-//W3C//DTD SVG 1.1//EN" "http://www.w3.org/Graphics/SVG/1.1/DTD/svg11.dtd">
<svg version="1.1" id="圖層_1" xmlns="http://www.w3.org/2000/svg" xmlns:xlink="http://www.w3.org/1999/xlink" x="0px" y="0px"
	 width="32px" height="32px" viewBox="0 0 32 32" enable-background="new 0 0 32 32" xml:space="preserve">
<g>
	<g>
		<path fill="#518CCA" d="M32,4v24c0,2.21-1.79,4-4,4H4c-2.21,0-4-1.79-4-4V4c0-2.21,1.79-4,4-4h24C30.21,0,32,1.79,32,4z"/>
	</g>
	<g>
		<path fill="#FFFFFF" d="M8.495,10.355v2.236H5.199c0.134-0.649,0.267-1.271,0.41-1.863C6.431,10.641,7.425,10.537,8.495,10.355z"
			/>
		<path fill="#FFFFFF" d="M8.495,14.406v2.332H4.539c0.067-0.603,0.163-1.243,0.259-1.883c0.028-0.153,0.048-0.306,0.075-0.449
			H8.495z"/>
		<path fill="#FFFFFF" d="M8.495,18.553v0.42c0,2.207-0.593,3.029-2.274,3.171l0.115,1.337c-1.863-0.621-2.121-1.222-2.131-2.78
			c0-0.334,0.038-1.118,0.134-2.149H8.495z"/>
		<path fill="#FFFFFF" d="M25.281,6.82C23.37,6.17,17.963,4.345,10.625,3.925C9.192,3.849,8.026,3.657,7.101,5.989
			C6.746,6.868,6.422,7.813,6.106,8.855c0.717-0.087,1.528-0.191,2.389-0.345V6.113h1.91v1.978c1.022-0.258,2.073-0.593,3.097-1.051
			l0.735,1.653c-1.281,0.573-2.59,0.984-3.832,1.281v2.226h3.765v1.815h-3.765v2.723h3.803v1.815h-3.803v0.42
			c0,1.06,0,4.061-2.952,4.882c1.434,0.497,2.322,0.86,4.596,1.357c-0.048,1.404-1.271,2.752-1.558,3.105
			c-0.314,0.373-0.362,0.315-0.181,0.612c0.181,0.305,0.258,0.21,0.984-0.115c0.706-0.315,2.693-1.509,3.544-3.029
			c3.803,0.708,6.249,0.774,7.395,0.803c1.194,0.029,1.797-0.114,2.6-1.939c0.812-1.825,1.499-4.146,2.063-7.223
			c0.563-3.077,0.898-6.21,0.898-7.939C27.795,7.747,27.192,7.479,25.281,6.82z M22.53,18.504c-0.335,2.427-2.054,2.733-3.421,2.733
			c-0.248,0-0.497-0.01-0.706-0.02l-0.479-0.019l0.048-1.815l0.507,0.019c1.681,0.076,2.093-0.029,2.255-1.146
			c0.324-2.361-2.103-4.529-2.131-4.548c-0.277-0.248-0.383-0.649-0.249-1.003l1.749-4.691h-3.201v16.099h-1.815L15.059,6.199h6.114
			c0.306,0,0.345,0.048,0.631,0.354c0.459,0.506,0.563,0.592,0.459,0.869l-2.007,5.37C21.135,13.708,22.893,15.916,22.53,18.504z"/>
	</g>
</g>
</svg>
