<?xml version="1.0" encoding="utf-8"?>
<!-- Generator: Adobe Illustrator 16.0.3, SVG Export Plug-In . SVG Version: 6.00 Build 0)  -->
<!DOCTYPE svg PUBLIC "-//W3C//DTD SVG 1.1//EN" "http://www.w3.org/Graphics/SVG/1.1/DTD/svg11.dtd">
<svg version="1.1" id="圖層_1" xmlns="http://www.w3.org/2000/svg" xmlns:xlink="http://www.w3.org/1999/xlink" x="0px" y="0px"
	 width="32px" height="32px" viewBox="0 0 32 32" enable-background="new 0 0 32 32" xml:space="preserve">
<g>
	<path fill="#518CCA" d="M32,4v24c0,2.21-1.79,4-4,4H4c-2.21,0-4-1.79-4-4V4c0-2.21,1.79-4,4-4h24C30.21,0,32,1.79,32,4z"/>
	<g>
		<path fill="#FFFFFF" d="M28.305,16.25c0,2.279-1.229,4.578-3.237,6.369c-0.416,0.371-2.975,2.792-3.928,3.701
			c-1.133,1.08-2.279,2.013-2.574,1.801c-0.276-0.198-0.073-0.683,0.34-2.43c-0.931,0.2-1.91,0.31-2.91,0.31
			c-6.79,0-12.3-4.92-12.3-9.75s5.51-9.75,12.3-9.75C22.795,6.5,28.305,11.42,28.305,16.25z"/>
		<g>
			<g>
				<path fill="#518CCA" d="M11.592,18.704H9.317v-6.086c0-0.429-0.301-0.74-0.716-0.74c-0.402,0-0.705,0.318-0.705,0.74v6.711
					c0,0.528,0.268,0.796,0.796,0.796h2.899c0.421,0,0.739-0.303,0.739-0.705C12.331,19.012,12.013,18.704,11.592,18.704z"/>
				<path fill="#518CCA" d="M13.371,14.07c-0.402,0-0.706,0.318-0.706,0.74v4.577c0,0.421,0.304,0.739,0.706,0.739
					c0.415,0,0.716-0.311,0.716-0.739V14.81C14.087,14.381,13.786,14.07,13.371,14.07z"/>
				<path fill="#518CCA" d="M13.382,11.719c-0.433,0-0.785,0.347-0.785,0.773c0,0.44,0.346,0.785,0.785,0.785
					c0.427,0,0.773-0.347,0.773-0.773C14.155,12.071,13.809,11.719,13.382,11.719z"/>
				<path fill="#518CCA" d="M17.639,14.07h-1.473c-0.495,0-1.001,0.104-1.001,0.876v4.44c0,0.421,0.303,0.739,0.704,0.739
					c0.415,0,0.717-0.311,0.717-0.739v-3.895h0.858c0.671,0,0.79,0.068,0.79,0.927v2.968c0,0.421,0.304,0.739,0.705,0.739
					c0.416,0,0.717-0.311,0.717-0.739V16.35C19.656,14.773,19.034,14.07,17.639,14.07z"/>
				<path fill="#518CCA" d="M24.028,18.704h-1.541c-0.602,0-0.698-0.056-0.698-0.825v-0.082h2.114c0.792,0,0.853-0.51,0.853-1.23
					c0-0.511-0.102-0.988-0.285-1.342c-0.357-0.702-1.108-1.155-1.915-1.155c-1.247,0-2.188,0.985-2.188,2.292v1.667
					c0,0.562,0.14,1.113,0.365,1.437c0.327,0.469,0.832,0.661,1.744,0.661h1.552c0.428,0,0.751-0.303,0.751-0.705
					C24.779,19.012,24.456,18.704,24.028,18.704z M21.793,16.375c0.006-0.137,0.016-0.192,0.032-0.27
					c0.103-0.417,0.331-0.603,0.742-0.603c0.342,0,0.677,0.073,0.744,0.873H21.793z"/>
			</g>
		</g>
	</g>
</g>
</svg>
