<?xml version="1.0" encoding="utf-8"?>
<!-- Generator: Adobe Illustrator 16.0.3, SVG Export Plug-In . SVG Version: 6.00 Build 0)  -->
<!DOCTYPE svg PUBLIC "-//W3C//DTD SVG 1.1//EN" "http://www.w3.org/Graphics/SVG/1.1/DTD/svg11.dtd">
<svg version="1.1" id="圖層_1" xmlns="http://www.w3.org/2000/svg" xmlns:xlink="http://www.w3.org/1999/xlink" x="0px" y="0px"
	 width="100px" height="40px" viewBox="0 0 100 40" enable-background="new 0 0 100 40" xml:space="preserve">
<g>
	<polygon fill="#FABF13" points="99.625,10.854 88.985,30.825 86.831,34.859 84.448,39.33 80.148,39.33 84.685,30.825 
		84.467,30.417 83.261,28.158 79.218,20.564 83.518,20.564 85.539,24.361 86.831,26.782 95.316,10.854 	"/>
	<path fill="#006CB8" d="M49.366,1.999v13.327c-2.278,0.769-4.063,2.61-4.746,4.926v-9.938l-9.824,9.833l-9.833-9.833v23.246h-4.746
		V1.999h4.746v1.604l9.833,9.834l9.824-9.834V1.999H49.366z"/>
	<path fill="#006CB8" d="M49.366,15.325v18.234H44.62V20.251C45.304,17.936,47.088,16.094,49.366,15.325z"/>
	<path fill="#FABF13" d="M58.753,13.607c-0.047-0.047-0.095-0.085-0.152-0.123c-0.712-0.56-1.509-1.035-2.354-1.405
		c-1.376-0.608-2.905-0.949-4.509-0.949c-0.816,0-1.604,0.085-2.373,0.256c-1.775,0.379-3.389,1.177-4.746,2.297
		c-2.506,2.06-4.101,5.183-4.101,8.666s1.595,6.597,4.101,8.657v-6.559c-0.199-0.664-0.304-1.367-0.304-2.098
		s0.104-1.433,0.304-2.098c0.684-2.316,2.468-4.157,4.746-4.926c0.74-0.256,1.547-0.398,2.373-0.398
		c1.092,0,2.136,0.237,3.066,0.674c1.87,0.845,3.322,2.458,3.977,4.433c0.351-1.481,1.263-2.752,2.487-3.588
		C60.595,15.363,59.741,14.404,58.753,13.607z"/>
	<path fill="#FABF13" d="M62.949,22.349c0,3.597-1.699,6.806-4.347,8.856c-1.11,0.864-2.401,1.528-3.797,1.927
		c-0.978,0.274-2.002,0.427-3.066,0.427c-0.816,0-1.604-0.085-2.373-0.256v-3.93c0.74,0.247,1.547,0.389,2.373,0.389
		c1.092,0,2.136-0.237,3.066-0.674c1.718-0.778,3.085-2.202,3.797-3.958c0.36-0.854,0.551-1.794,0.551-2.781
		c0-0.807-0.133-1.585-0.371-2.316c0.351-1.481,1.263-2.752,2.487-3.588C62.332,18.164,62.949,20.185,62.949,22.349z"/>
	<path fill="#8FC31F" d="M54.805,33.132c1.396-0.399,2.687-1.063,3.797-1.927v2.354h-3.797V33.132z"/>
	<path fill="#8FC31F" d="M74.462,20.564h-3.835c-0.075-0.579-0.247-1.139-0.494-1.651c-0.569-1.224-1.537-2.23-2.733-2.838
		c-0.826-0.427-1.756-0.665-2.752-0.665c-1.244,0-2.411,0.38-3.379,1.035c-1.224,0.835-2.136,2.107-2.487,3.588
		c-0.123,0.456-0.18,0.94-0.18,1.434v3.664c-0.712,1.756-2.079,3.18-3.797,3.958V12.079h3.797v1.632
		c0.048-0.038,0.095-0.076,0.152-0.104c1.642-1.252,3.683-1.993,5.895-1.993c2.021,0,3.901,0.617,5.458,1.661
		c1.083,0.712,2.013,1.642,2.744,2.734C73.731,17.337,74.311,18.885,74.462,20.564z"/>
	<path fill="#8FC31F" d="M74.5,21.467v12.092h-3.797V21.467c0-0.304-0.019-0.608-0.076-0.902h3.835
		C74.491,20.859,74.5,21.163,74.5,21.467z"/>
	<path fill="#006CB8" d="M72.849,16.009c0.987-0.598,2.136-0.978,3.379-1.054l-1.898-3.569c-1.557,0.332-2.981,0.987-4.225,1.889
		C71.188,13.987,72.118,14.917,72.849,16.009z M87.723,24.361c0.123-0.655,0.18-1.329,0.18-2.012c0-5.543-4.025-10.147-9.312-11.048
		l2.867,5.382c1.187,0.997,2.05,2.344,2.43,3.882h-14.39c0.143-0.579,0.361-1.139,0.636-1.651c-0.569-1.224-1.537-2.23-2.733-2.838
		c-1.215,1.784-1.927,3.949-1.927,6.274c0,3.987,2.088,7.489,5.23,9.473c1.139,0.722,2.42,1.253,3.797,1.519
		c0.712,0.142,1.443,0.218,2.192,0.218c3.019,0,5.752-1.196,7.774-3.142c0.693-0.674,1.31-1.433,1.813-2.259h-4.983
		c-1.263,1.006-2.867,1.604-4.604,1.604c-0.759,0-1.5-0.114-2.192-0.333c-1.547-0.475-2.876-1.452-3.797-2.733
		c-0.513-0.693-0.901-1.48-1.139-2.335H87.723z"/>
	<polygon fill="#FABF13" points="83.518,20.564 79.218,20.564 76.228,14.955 74.33,11.386 74.045,10.854 78.354,10.854 
		78.591,11.301 81.458,16.683 	"/>
	<path fill="#D93932" d="M25.15,16.537l2.16-1.058c-0.208-0.692-0.479-1.365-0.807-2.034c-3.384-6.909-11.769-9.78-18.687-6.392
		c-6.908,3.384-9.78,11.768-6.396,18.677c3.388,6.917,11.773,9.79,18.682,6.405c4.835-2.368,7.691-7.179,7.809-12.212l-4.586,2.246
		c-0.721,2.592-2.496,4.872-5.095,6.145c-4.137,2.026-9.023,0.831-11.798-2.609l16.98-8.317L25.15,16.537z M4.54,21.893
		c-1.073-4.32,0.982-8.976,5.149-11.016c4.175-2.045,9.114-0.815,11.878,2.676L4.54,21.893z"/>
</g>
</svg>
