<?xml version="1.0" encoding="utf-8"?>
<!-- Generator: Adobe Illustrator 16.0.3, SVG Export Plug-In . SVG Version: 6.00 Build 0)  -->
<!DOCTYPE svg PUBLIC "-//W3C//DTD SVG 1.1//EN" "http://www.w3.org/Graphics/SVG/1.1/DTD/svg11.dtd">
<svg version="1.1" id="圖層_1" xmlns="http://www.w3.org/2000/svg" xmlns:xlink="http://www.w3.org/1999/xlink" x="0px" y="0px"
	 width="40px" height="40px" viewBox="0 0 40 40" enable-background="new 0 0 40 40" xml:space="preserve">
<rect y="0" fill="#EA5444" width="40" height="40"/>
<g>
	<path fill="#FFFFFF" d="M18.095,31.207c-3.499,0-6.789-1.363-9.263-3.84c-5.108-5.112-5.108-13.43,0-18.542
		c2.474-2.477,5.764-3.841,9.263-3.841s6.789,1.364,9.265,3.84c4.177,4.182,5.042,10.676,2.104,15.793
		c-0.565,0.992-1.273,1.919-2.104,2.75c-0.83,0.83-1.757,1.539-2.753,2.107C22.637,30.607,20.384,31.207,18.095,31.207z
		 M18.095,7.987c-2.697,0-5.234,1.052-7.142,2.961c-3.938,3.941-3.938,10.354,0,14.296c1.909,1.909,4.444,2.961,7.142,2.961
		c1.766,0,3.501-0.462,5.021-1.337c0.769-0.438,1.479-0.983,2.12-1.624c0.642-0.643,1.187-1.354,1.621-2.118
		c2.268-3.948,1.6-8.954-1.621-12.178C23.328,9.039,20.793,7.987,18.095,7.987z"/>
	<path fill="#FFFFFF" d="M28.161,23.869l5.948,5.955c1.188,1.188,1.188,3.111,0,4.299c-0.593,0.595-1.37,0.889-2.148,0.893
		c-0.777,0.004-1.555-0.298-2.148-0.893l-5.948-5.953c0.871-0.497,1.691-1.121,2.434-1.865C27.04,25.563,27.666,24.74,28.161,23.869
		z"/>
</g>
</svg>
